<?xml version="1.0" encoding="utf-8"?>
<!-- Generator: Adobe Illustrator 16.0.0, SVG Export Plug-In . SVG Version: 6.00 Build 0)  -->
<!DOCTYPE svg PUBLIC "-//W3C//DTD SVG 1.1//EN" "http://www.w3.org/Graphics/SVG/1.1/DTD/svg11.dtd">
<svg version="1.1" id="Capa_1" xmlns="http://www.w3.org/2000/svg" xmlns:xlink="http://www.w3.org/1999/xlink" x="0px" y="0px"
	 width="93.8px" height="93.8px" viewBox="0 0 93.8 93.8" enable-background="new 0 0 93.8 93.8" xml:space="preserve">
<g>
	<g>
		<path fill="#FFFFFF" d="M79.488,48.126c-2.777,0.791-5.51,1.899-8.273,2.854c-2.77,0.949-5.434,2.17-8.098,3.219
			c-2.621,1.154-5.18,2.328-7.621,3.508c-2.4,1.254-4.758,2.391-6.875,3.652c-2.166,1.184-4.123,2.42-5.925,3.555
			c-1.778,1.162-3.39,2.242-4.752,3.256c-1.378,1-2.519,1.9-3.434,2.66c-0.475,0.369-1.178,1.01-1.178,1.01l-10.038-8.684
			c0,0,0.354-0.262,1.016-0.74c0.377-0.277,0.803-0.572,1.261-0.865c0.474-0.299,1.021-0.688,1.627-1.035
			c1.211-0.744,2.688-1.605,4.391-2.516c1.701-0.93,3.638-1.869,5.759-2.867c2.132-0.963,4.436-2,6.92-2.941
			c2.452-1.025,5.108-1.886,7.817-2.842c2.729-0.889,5.569-1.736,8.459-2.55c2.918-0.707,5.826-1.571,8.808-2.154
			c2.978-0.584,5.907-1.32,8.856-1.736c2.938-0.444,5.799-1.024,8.606-1.318c2.269-0.269,4.455-0.525,6.576-0.775
			c-0.095-0.725-0.203-1.442-0.328-2.154c-0.414,0.021-0.836,0.041-1.276,0.063c-1.808,0.059-3.845,0.219-6.062,0.445
			c-2.214,0.204-4.608,0.426-7.146,0.661c-2.521,0.344-5.174,0.708-7.918,1.084c-2.744,0.336-5.541,0.962-8.394,1.444
			c-2.854,0.457-5.699,1.229-8.556,1.843c-2.86,0.613-5.653,1.505-8.425,2.225c-2.742,0.831-5.421,1.69-7.984,2.573
			c-2.539,0.953-5.011,1.799-7.267,2.799c-2.291,0.914-4.382,1.908-6.307,2.818c-1.903,0.94-3.634,1.823-5.105,2.664
			c-1.491,0.823-3.728,2.225-3.728,2.225L3.594,51.089c0,0,0.38-0.217,1.097-0.612c0.408-0.231,0.865-0.47,1.354-0.705
			c0.507-0.241,2.186-1.104,2.829-1.384c1.293-0.596,2.862-1.276,4.661-1.97c1.799-0.718,3.839-1.422,6.063-2.158
			c2.232-0.699,4.646-1.454,7.222-2.091c2.558-0.727,5.296-1.259,8.103-1.887c2.818-0.55,5.738-1.055,8.701-1.519
			c2.98-0.351,5.978-0.86,9.002-1.081c3.024-0.223,6.024-0.601,9.002-0.662c2.974-0.089,5.879-0.323,8.701-0.277
			c2.813,0.008,5.537,0.015,8.116,0.022c2.57,0.118,5.002,0.229,7.248,0.335c2.242,0.085,4.289,0.206,6.104,0.399
			c0.371,0.032,0.726,0.064,1.074,0.099C88.559,16.152,69.617,0,46.901,0C20.999,0,0,20.999,0,46.9c0,25.9,20.999,46.9,46.901,46.9
			C72.803,93.8,93.8,72.802,93.8,46.9c0-0.942-0.036-1.875-0.092-2.805c-1.959,0.513-3.974,1.039-6.062,1.589
			C84.962,46.348,82.264,47.302,79.488,48.126z"/>
	</g>
</g>
</svg>
